<?xml version="1.0" standalone="no"?>
<!DOCTYPE svg PUBLIC "-//W3C//DTD SVG 20010904//EN"
 "http://www.w3.org/TR/2001/REC-SVG-20010904/DTD/svg10.dtd">

<svg xmlns="http://www.w3.org/2000/svg" version="1.1" width="500px" height="341px" style="shape-rendering:geometricPrecision; text-rendering:geometricPrecision; image-rendering:optimizeQuality; fill-rule:evenodd; clip-rule:evenodd" xmlns:xlink="http://www.w3.org/1999/xlink">
  <rect width="500" height="10" fill="white" />
  <text x="50%" y="30" font-size="28px" text-anchor="middle" fill="red">
未通过授权检测拒绝访问---原文: img.ximi.me
   </text>
<g><path style="opacity:0.943" fill="#000000" d="M 336.5,29.5 C 363.424,27.3152 388.424,33.1485 411.5,47C 429.106,57.5994 444.606,70.766 458,86.5C 465.751,99.468 463.584,110.301 451.5,119C 454.731,128.312 457.398,137.812 459.5,147.5C 464.179,147.334 468.845,147.501 473.5,148C 474.647,149.904 474.147,151.404 472,152.5C 468.472,153.424 464.972,154.424 461.5,155.5C 460.827,163.223 459.661,170.89 458,178.5C 455.254,184.904 452.087,191.071 448.5,197C 453.282,199.893 458.282,202.56 463.5,205C 467.785,209.406 466.785,211.073 460.5,210C 453.925,207.361 447.258,205.361 440.5,204C 436.423,205.787 432.59,207.954 429,210.5C 428.75,213.85 427.917,217.017 426.5,220C 421.862,221.159 417.195,221.659 412.5,221.5C 413.5,222.833 414.5,224.167 415.5,225.5C 411.754,229.308 411.587,233.308 415,237.5C 419.511,241.001 422.844,245.334 425,250.5C 425.667,253.833 425.667,257.167 425,260.5C 423.035,265.362 421.535,270.362 420.5,275.5C 423.434,280.633 427.767,282.467 433.5,281C 434.893,279.829 435.727,278.329 436,276.5C 440.391,273.117 444.558,269.284 448.5,265C 459.088,260.248 468.255,262.081 476,270.5C 477.667,272.833 479.333,275.167 481,277.5C 481.723,289.121 476.89,297.621 466.5,303C 462.833,303.667 459.167,303.667 455.5,303C 451.024,300.76 446.357,299.094 441.5,298C 440.167,297 438.833,296 437.5,295C 431.228,296.299 425.228,295.466 419.5,292.5C 419.308,296.411 419.141,300.411 419,304.5C 416.224,306.14 414.224,305.473 413,302.5C 412.216,298.95 411.383,295.45 410.5,292C 375.503,290.529 340.503,290.363 305.5,291.5C 304.561,295.464 303.728,299.464 303,303.5C 301.757,305.833 300.091,306.5 298,305.5C 297.333,301.5 297.333,297.5 298,293.5C 299.753,274.695 302.253,256.029 305.5,237.5C 302.833,237.5 300.167,237.5 297.5,237.5C 298.256,244.491 298.423,251.491 298,258.5C 296.951,265.622 292.951,269.955 286,271.5C 279.851,270.306 277.851,266.639 280,260.5C 283.889,256.051 286.722,251.051 288.5,245.5C 280.639,241.987 272.806,238.321 265,234.5C 260.436,237.983 257.769,236.983 257,231.5C 233.001,217.669 209.334,203.336 186,188.5C 182.982,181.74 184.482,175.907 190.5,171C 194.261,170.262 197.928,170.595 201.5,172C 223.933,185.965 246.433,199.799 269,213.5C 270.393,212.385 271.893,211.885 273.5,212C 274.802,214.213 275.802,216.546 276.5,219C 280.5,219.667 284.5,219.667 288.5,219C 286.919,217.172 285.585,215.172 284.5,213C 286.349,211.907 288.016,210.574 289.5,209C 280.085,203.877 270.918,198.377 262,192.5C 259.733,193.289 257.4,193.956 255,194.5C 253.118,194.312 251.952,193.312 251.5,191.5C 253.167,189.167 255.167,187.167 257.5,185.5C 251.962,174.864 251.129,163.864 255,152.5C 256.942,147.503 258.776,142.503 260.5,137.5C 257.478,137.196 254.478,136.696 251.5,136C 249.003,135.588 247.003,134.422 245.5,132.5C 245.977,131.522 246.643,130.689 247.5,130C 253.507,129.868 259.507,129.868 265.5,130C 271.065,122.871 274.731,114.871 276.5,106C 274.794,103.428 272.961,100.928 271,98.5C 266.712,92.3857 266.378,86.0524 270,79.5C 285.46,53.7095 307.626,37.0428 336.5,29.5 Z M 340.5,36.5 C 358.566,35.0089 375.899,37.8422 392.5,45C 416.184,56.029 436.351,71.529 453,91.5C 458.259,98.8538 457.426,105.354 450.5,111C 437.978,106.281 424.978,102.614 411.5,100C 393.186,97.2525 374.852,94.7525 356.5,92.5C 359.894,87.3904 361.728,81.7238 362,75.5C 362.828,71.1287 362.661,66.7953 361.5,62.5C 354.057,60.5198 346.891,57.8531 340,54.5C 332.205,56.226 324.371,57.8927 316.5,59.5C 315.167,67.1825 315.334,74.8492 317,82.5C 317.816,86.1349 319.65,89.1349 322.5,91.5C 310.877,92.8869 299.211,93.7202 287.5,94C 284.785,94.8776 282.451,96.3776 280.5,98.5C 274.932,94.703 273.432,89.703 276,83.5C 287.645,65.1916 303.145,51.025 322.5,41C 328.52,39.0356 334.52,37.5356 340.5,36.5 Z M 333.5,62.5 C 341.316,62.1608 348.483,64.1608 355,68.5C 357.073,79.8207 352.906,87.6541 342.5,92C 339.366,92.7901 336.366,92.4568 333.5,91C 325.111,86.2352 321.444,78.9018 322.5,69C 322.833,67.8333 323.167,66.6667 323.5,65.5C 327.02,64.7399 330.353,63.7399 333.5,62.5 Z M 297.5,99.5 C 304.023,101.893 304.023,104.726 297.5,108C 295.597,108.774 293.93,108.44 292.5,107C 294.522,104.672 296.188,102.172 297.5,99.5 Z M 310.5,99.5 C 315.598,98.7663 318.432,100.766 319,105.5C 316.934,108.132 314.434,108.799 311.5,107.5C 312.167,106.5 312.833,105.5 313.5,104.5C 312.048,103.06 311.048,101.394 310.5,99.5 Z M 327.5,100.5 C 331.443,98.7923 334.443,99.959 336.5,104C 334.616,107.774 331.616,109.107 327.5,108C 330.002,105.299 330.002,102.799 327.5,100.5 Z M 347.5,99.5 C 352.999,99.4752 354.499,101.809 352,106.5C 350.067,109.385 347.567,110.052 344.5,108.5C 346.026,105.691 347.026,102.691 347.5,99.5 Z M 366.5,100.5 C 372.348,101.463 373.681,104.297 370.5,109C 367.906,110.601 365.239,110.767 362.5,109.5C 363.99,108.174 365.324,106.674 366.5,105C 365.272,103.51 365.272,102.01 366.5,100.5 Z M 383.5,103.5 C 387.459,102.578 389.792,104.078 390.5,108C 390.241,109.261 389.574,110.261 388.5,111C 386.167,111.667 383.833,111.667 381.5,111C 383.278,108.865 383.945,106.365 383.5,103.5 Z M 401.5,105.5 C 405.799,105.66 408.299,107.66 409,111.5C 406.053,114.373 402.887,114.873 399.5,113C 401.278,110.865 401.945,108.365 401.5,105.5 Z M 418.5,110.5 C 420.435,109.291 422.435,109.458 424.5,111C 426.013,113.454 425.346,115.121 422.5,116C 420.5,116.667 418.5,116.667 416.5,116C 419.136,114.59 419.803,112.757 418.5,110.5 Z M 432.5,112.5 C 435.599,112.092 437.933,113.259 439.5,116C 438.259,119.349 436.092,120.182 433,118.5C 432.505,116.527 432.338,114.527 432.5,112.5 Z M 279.5,121.5 C 280.695,121.866 281.361,122.699 281.5,124C 278.531,129.437 275.698,134.937 273,140.5C 270.149,151.906 271.816,162.573 278,172.5C 284.802,181.213 293.636,184.379 304.5,182C 313.178,179.322 319.345,173.822 323,165.5C 325.143,158.664 326.31,151.664 326.5,144.5C 329.127,143.908 331.794,143.575 334.5,143.5C 336.872,163.584 329.539,178.751 312.5,189C 303.219,191.504 294.219,190.837 285.5,187C 270.132,174.739 264.632,158.905 269,139.5C 271.237,132.684 274.737,126.684 279.5,121.5 Z M 440.5,129.5 C 442.792,129.244 444.959,129.577 447,130.5C 449.529,135.588 451.363,140.922 452.5,146.5C 451.5,148.5 450.5,150.5 449.5,152.5C 449.785,154.569 450.952,155.902 453,156.5C 454.315,169.548 450.982,181.214 443,191.5C 441.2,193.317 439.034,194.484 436.5,195C 434.281,199.629 430.615,202.629 425.5,204C 408.334,209.887 390.667,212.053 372.5,210.5C 344.222,211.674 316.556,208.174 289.5,200C 278.723,196.039 269.889,189.539 263,180.5C 259.256,172.418 258.589,164.085 261,155.5C 262.915,168.496 268.415,179.663 277.5,189C 299.825,202.365 318.658,198.531 334,177.5C 339.389,167.176 342.222,156.176 342.5,144.5C 343.833,144.5 345.167,144.5 346.5,144.5C 343.634,167.123 351.3,184.956 369.5,198C 395.814,209.548 417.314,203.715 434,180.5C 441.599,165.214 442.432,149.547 436.5,133.5C 436.667,132.833 436.833,132.167 437,131.5C 438.302,130.915 439.469,130.249 440.5,129.5 Z M 424.5,134.5 C 426.722,134.178 428.556,134.845 430,136.5C 439.024,162.104 431.858,181.604 408.5,195C 380.081,202.039 361.581,191.539 353,163.5C 352.139,157.415 352.473,151.415 354,145.5C 355.584,144.139 357.418,143.472 359.5,143.5C 354.751,163.472 361.417,177.972 379.5,187C 399.281,192.36 413.115,185.526 421,166.5C 424.277,156.852 423.777,147.352 419.5,138C 419.645,137.228 419.978,136.561 420.5,136C 422.058,135.79 423.391,135.29 424.5,134.5 Z M 198.5,189.5 C 196.577,189.205 194.91,188.372 193.5,187C 195.928,186.253 197.594,187.086 198.5,189.5 Z M 207.5,194.5 C 209.027,194.427 210.027,195.094 210.5,196.5C 208.973,196.573 207.973,195.906 207.5,194.5 Z M 210.5,196.5 C 228.099,205.3 245.099,215.133 261.5,226C 260.5,226.667 259.5,226.667 258.5,226C 241.935,216.894 225.935,207.06 210.5,196.5 Z M 320.5,215.5 C 331.228,214.623 332.394,216.623 324,221.5C 322.053,219.937 320.886,217.937 320.5,215.5 Z M 393.5,217.5 C 399.325,216.745 403.325,219.078 405.5,224.5C 400.04,228.402 394.373,232.069 388.5,235.5C 389.069,238.237 390.736,239.737 393.5,240C 389.797,243.367 386.464,247.034 383.5,251C 374.434,253.591 365.267,254.424 356,253.5C 352.716,244.372 350.716,235.038 350,225.5C 350.308,224.692 350.808,224.025 351.5,223.5C 355.666,226.417 359.999,229.084 364.5,231.5C 370.331,227.417 376.331,223.584 382.5,220C 386.28,219.082 389.946,218.249 393.5,217.5 Z M 295.5,219.5 C 299.634,218.515 303.968,218.182 308.5,218.5C 308.528,222.756 307.195,226.422 304.5,229.5C 303.252,228.96 302.085,228.293 301,227.5C 299.391,224.593 297.558,221.927 295.5,219.5 Z M 355.5,219.5 C 360.985,218.348 366.651,218.182 372.5,219C 369.905,221.213 367.072,223.047 364,224.5C 361.073,222.955 358.24,221.288 355.5,219.5 Z M 315.5,221.5 C 317.797,222.835 319.797,224.668 321.5,227C 322.333,227.167 323.167,227.333 324,227.5C 326.562,225.782 329.395,224.782 332.5,224.5C 331.477,234.596 329.81,244.596 327.5,254.5C 322.005,254.985 316.838,253.985 312,251.5C 312.615,241.466 313.782,231.466 315.5,221.5 Z M 293.5,229.5 C 291.577,229.205 289.91,228.372 288.5,227C 290.668,226.751 292.335,227.584 293.5,229.5 Z M 402.5,239.5 C 403.043,239.56 403.376,239.893 403.5,240.5C 400.23,242.959 399.897,242.625 402.5,239.5 Z M 411.5,243.5 C 415.02,244.183 417.52,246.183 419,249.5C 420.25,252.077 420.584,254.743 420,257.5C 418.402,261.461 416.902,265.461 415.5,269.5C 412.133,271.578 408.466,272.911 404.5,273.5C 403.479,272.998 403.312,272.332 404,271.5C 406.383,268.727 409.217,266.561 412.5,265C 417.992,258.619 417.825,252.452 412,246.5C 411.517,245.552 411.351,244.552 411.5,243.5 Z M 394.5,245.5 C 395.043,245.56 395.376,245.893 395.5,246.5C 390.692,254.885 392.025,262.051 399.5,268C 398.975,268.692 398.308,269.192 397.5,269.5C 390.077,265.066 387.91,258.733 391,250.5C 391.997,248.677 393.164,247.01 394.5,245.5 Z M 400.5,251.5 C 402.93,252.653 402.93,253.653 400.5,254.5C 399.833,254.167 399.167,253.833 398.5,253.5C 399.243,252.818 399.909,252.151 400.5,251.5 Z M 291.5,252.5 C 293.918,258.685 292.085,263.352 286,266.5C 284.635,265.407 284.301,264.074 285,262.5C 286.996,259.014 289.163,255.681 291.5,252.5 Z M 307.5,257.5 C 310.43,257.981 311.763,259.814 311.5,263C 312.283,266.594 310.95,268.427 307.5,268.5C 307.5,264.833 307.5,261.167 307.5,257.5 Z M 376.5,257.5 C 377.5,257.5 378.5,257.5 379.5,257.5C 379.5,261.167 379.5,264.833 379.5,268.5C 378.5,268.5 377.5,268.5 376.5,268.5C 376.5,264.833 376.5,261.167 376.5,257.5 Z M 347.5,260.5 C 352.718,262.156 352.718,264.323 347.5,267C 344.5,267.667 341.5,267.667 338.5,267C 334.543,266.45 333.376,264.616 335,261.5C 336.334,265.104 338.834,266.271 342.5,265C 344.24,263.483 345.906,261.983 347.5,260.5 Z M 316.5,261.5 C 319.85,261.335 323.183,261.502 326.5,262C 328.107,263.049 328.773,264.549 328.5,266.5C 324.818,266.665 321.152,266.499 317.5,266C 316.62,264.644 316.286,263.144 316.5,261.5 Z M 357.5,261.5 C 361.833,261.5 366.167,261.5 370.5,261.5C 370.714,263.144 370.38,264.644 369.5,266C 365.179,266.499 360.846,266.666 356.5,266.5C 356.366,264.708 356.699,263.042 357.5,261.5 Z M 454.5,267.5 C 461.456,266.647 467.122,268.813 471.5,274C 467.489,273.179 463.489,272.012 459.5,270.5C 455.467,271.35 451.8,273.017 448.5,275.5C 447.479,274.998 447.312,274.332 448,273.5C 450.063,271.266 452.229,269.266 454.5,267.5 Z M 457.5,276.5 C 465.036,275.92 467.536,279.253 465,286.5C 460.609,290.658 456.942,289.992 454,284.5C 452.78,280.707 453.947,278.04 457.5,276.5 Z M 442.5,279.5 C 444.371,279.859 445.871,280.859 447,282.5C 448.54,286.419 450.707,289.919 453.5,293C 464.926,296.758 471.259,292.591 472.5,280.5C 474.808,279.052 476.141,279.718 476.5,282.5C 474.891,288.595 471.558,293.428 466.5,297C 462.5,299 458.5,299 454.5,297C 451.27,294.927 447.937,293.094 444.5,291.5C 442.855,287.675 442.188,283.675 442.5,279.5 Z M 417.5,282.5 C 421.079,282.766 421.413,284.099 418.5,286.5C 416.358,285.563 416.024,284.23 417.5,282.5 Z M 435.5,286.5 C 435.56,285.957 435.893,285.624 436.5,285.5C 437.583,286.365 437.749,287.365 437,288.5C 436.722,287.584 436.222,286.918 435.5,286.5 Z M 426.5,286.5 C 428.912,286.694 429.912,288.027 429.5,290.5C 426.046,290.733 425.046,289.4 426.5,286.5 Z"/></g>
<g><path style="opacity:0.915" fill="#010101" d="M 111.5,49.5 C 120.453,49.9632 123.953,54.6298 122,63.5C 119.459,68.0685 115.625,69.5685 110.5,68C 105.095,61.624 105.428,55.4574 111.5,49.5 Z"/></g>
<g><path style="opacity:0.935" fill="#000000" d="M 45.5,59.5 C 54.5062,59.3336 63.5062,59.5002 72.5,60C 75.5755,60.3457 78.5755,61.0124 81.5,62C 83.3467,64.5791 83.8467,67.4124 83,70.5C 81.3198,75.7061 79.1531,80.7061 76.5,85.5C 90.1529,89.9948 93.3196,98.3281 86,110.5C 81.1095,116.895 74.9428,121.562 67.5,124.5C 66.8419,131.535 66.0086,138.535 65,145.5C 61.0824,150.972 57.749,150.638 55,144.5C 53.2752,122.368 52.1085,100.201 51.5,78C 51.1667,75.5 50.8333,73 50.5,70.5C 47.6345,69.8177 45.1345,68.4844 43,66.5C 42.162,63.5193 42.9953,61.1859 45.5,59.5 Z M 59.5,71.5 C 63.1817,71.3347 66.8484,71.5014 70.5,72C 66.3143,77.8903 64.1477,84.3903 64,91.5C 64.4652,92.9308 65.2986,94.0975 66.5,95C 70.8186,96.3729 74.8186,98.2062 78.5,100.5C 75.7773,105.556 71.7773,109.223 66.5,111.5C 63.5169,98.3159 61.1836,84.9825 59.5,71.5 Z"/></g>
<g><path style="opacity:0.932" fill="#000000" d="M 109.5,73.5 C 122.837,73.3334 136.171,73.5001 149.5,74C 154.807,78.1441 154.141,81.4774 147.5,84C 137.55,85.3313 127.55,85.8313 117.5,85.5C 117.914,90.0745 118.581,94.5745 119.5,99C 125.974,97.0174 132.64,95.5174 139.5,94.5C 146.504,93.9087 151.004,96.9087 153,103.5C 155.169,115.656 151.002,124.823 140.5,131C 131.889,133.371 127.722,130.204 128,121.5C 137.841,120.329 142.674,114.829 142.5,105C 134.343,103.942 127.176,106.108 121,111.5C 118.949,119.704 116.282,127.704 113,135.5C 111.267,137.602 109.267,137.935 107,136.5C 107.855,120.512 108.522,104.512 109,88.5C 108.691,87.2341 108.191,86.0674 107.5,85C 103.082,84.7923 98.749,84.1256 94.5,83C 91.8308,79.6515 92.4975,76.9848 96.5,75C 101.019,74.8247 105.353,74.3247 109.5,73.5 Z"/></g>
<g><path style="opacity:0.921" fill="#000000" d="M 90.5,159.5 C 92.0174,159.511 93.1841,160.177 94,161.5C 96.0414,165.084 98.208,168.584 100.5,172C 109.64,171.669 118.807,171.169 128,170.5C 133.95,170.213 139.617,171.213 145,173.5C 147.005,179.641 145.505,184.808 140.5,189C 138.5,189.667 136.5,189.667 134.5,189C 134.296,186.379 134.296,183.545 134.5,180.5C 123.456,180.181 112.456,180.681 101.5,182C 98.7433,186.179 95.7433,190.179 92.5,194C 90.5,194.667 88.5,194.667 86.5,194C 85.3781,190.591 85.2114,187.091 86,183.5C 87.7682,175.554 89.2682,167.554 90.5,159.5 Z"/></g>
<g><path style="opacity:0.917" fill="#000000" d="M 46.5,173.5 C 56.2092,174.897 65.8759,176.73 75.5,179C 77.9469,183.486 76.6136,186.819 71.5,189C 63.4631,189.86 55.7965,188.526 48.5,185C 42.9265,181.672 42.2599,177.839 46.5,173.5 Z"/></g>
<g><path style="opacity:0.931" fill="#010101" d="M 111.5,183.5 C 113.17,183.751 114.67,184.418 116,185.5C 117.394,190.932 119.894,195.766 123.5,200C 130.412,203.372 137.245,206.872 144,210.5C 146.178,215.098 144.678,217.764 139.5,218.5C 130.79,217.488 123.123,214.155 116.5,208.5C 112.315,212.519 107.982,216.353 103.5,220C 99.577,220.793 95.7436,220.626 92,219.5C 91.3653,217.365 91.6986,215.365 93,213.5C 97,209.5 101,205.5 105,201.5C 107.784,195.683 109.95,189.683 111.5,183.5 Z"/></g>
<g><path style="opacity:0.92" fill="#010101" d="M 63.5,198.5 C 66.1873,198.336 68.854,198.503 71.5,199C 74.1667,201.333 74.1667,203.667 71.5,206C 65.0515,210.153 58.0515,211.82 50.5,211C 47.1749,209.386 46.8415,207.386 49.5,205C 54.1373,202.511 58.804,200.344 63.5,198.5 Z"/></g>
<g><path style="opacity:0.932" fill="#000000" d="M 94.5,226.5 C 103.839,226.334 113.173,226.5 122.5,227C 133.046,229.209 139.046,235.542 140.5,246C 139.744,249.125 139.411,252.291 139.5,255.5C 143.582,255.344 147.582,255.844 151.5,257C 155.659,260.199 155.325,262.865 150.5,265C 146.227,266.03 141.894,266.697 137.5,267C 114.5,267.667 91.5,267.667 68.5,267C 63.3058,266.869 58.3058,265.869 53.5,264C 50.8333,262 50.8333,260 53.5,258C 57.2206,257.356 60.8872,256.523 64.5,255.5C 65.8631,248.874 67.0297,242.207 68,235.5C 70.723,227.398 75.8896,225.398 83.5,229.5C 87.3349,228.659 91.0016,227.659 94.5,226.5 Z M 102.5,234.5 C 105.167,234.833 107.833,235.167 110.5,235.5C 110.182,241.895 109.348,248.228 108,254.5C 106.301,255.406 104.467,255.739 102.5,255.5C 102.286,248.015 102.286,241.015 102.5,234.5 Z M 88.5,236.5 C 90.7159,236.275 92.3826,237.108 93.5,239C 92.3137,244.434 91.3137,249.934 90.5,255.5C 86.8333,255.5 83.1667,255.5 79.5,255.5C 79.3342,250.821 79.5008,246.155 80,241.5C 82.9788,239.933 85.8121,238.266 88.5,236.5 Z M 118.5,236.5 C 126.75,236.576 129.917,240.576 128,248.5C 127.697,250.888 126.863,253.055 125.5,255C 123.888,255.72 122.388,255.554 121,254.5C 119.675,248.566 118.842,242.566 118.5,236.5 Z"/></g>
<g><path style="opacity:0.807" fill="#010101" d="M 371.5,229.5 C 376.566,229.34 381.566,229.84 386.5,231C 387.815,232.395 387.481,233.395 385.5,234C 380.167,234.667 374.833,234.667 369.5,234C 368.663,232.989 368.33,231.822 368.5,230.5C 369.791,230.737 370.791,230.404 371.5,229.5 Z"/></g>
</svg>
